<svg class="esi-logo" version="1.1" viewBox="0 0 160 55" xmlns="http://www.w3.org/2000/svg">
    <defs>
        <clipPath id="clip-s">
            <path d="M90.3984 1.4473C75.9932 1.4473 69.5742 6.8498 69.5742 16.4004 69.5742 25.5604 75.7576 30.6484 88.9883 30.6484L110.1269 30.6484C119.9122 30.6484 126.5508 31.509 126.5508 38.3984 126.5508 44.6651 121.7124 47.5586 113.6484 47.5586L7.9727 47.5586 4.3379 53.8203 113.0234 53.8203C127.4274 53.8203 133.7695 48.4979 133.7695 38.4766 133.7695 29.0046 127.1942 24.3848 114.4316 24.3848L93.2949 24.3848C83.3522 24.3848 76.7734 23.6019 76.7734 16.9473 76.7734 9.5473 81.7862 7.709 89.7715 7.709L127.2715 7.709 130.8477 1.4473 90.3984 1.4473z" />
        </clipPath>

        <clipPath id="clip-i">
            <path d="M147.9418 1.4458s7.136 0 7.136 0 0 52.3747 0 52.3747-7.136 0-7.136 0 0-52.3747 0-52.3747" />
        </clipPath>

        <clipPath id="clip-e">
            <path id="top-e" d="M55.4613 7.7091s-51.124 0-51.124 0S7.972 1.4464 7.972 1.4464s50.4387 0 50.4387 0-2.9493 6.2627-2.9493 6.2627" />
            <path id="middle-e" d="M55.4613 30.6479s2.9493-6.2627 2.9493-6.2627-50.4387 0-50.4387 0-3.6347 6.2627-3.6347 6.2627 51.124 0 51.124 0" />
        </clipPath>
    </defs>

    <g>
        <path id="top-e" fill="transparent" stroke="currentColor" clip-path="url(#clip-e)" stroke-width="7.5" d="M4.0 4.5 58.5 4.5" />
        <path id="middle-e" fill="transparent" stroke="currentColor" clip-path="url(#clip-e)" stroke-width="7.5" d="M4.0 27.5 58.5 27.5" />
    </g>

    <g>
        <path id="i-line" stroke="currentColor" clip-path="url(#clip-i)" stroke-width="7.5" fill="none" d="M151.5 1 151.5 54.5" />
    </g>

    <g>
        <path id="s-line" stroke="currentColor" stroke-width="7.5" fill="none" clip-path="url(#clip-s)" d="M131.027 4.491 90.113 4.491C78.553 4.586 73.272 8.202 73.32 16.48 73.415 24.472 79.314 27.517 91.065 27.517L111.458 27.476C122.647 27.552 129.905 30.652 130.056 38.515 129.981 46.302 124.008 50.536 113.499 50.687L4.099 50.536" />
    </g>
</svg>
